<?xml version="1.0" encoding="utf-8"?>
<!-- Generator: Adobe Illustrator 20.1.0, SVG Export Plug-In . SVG Version: 6.00 Build 0)  -->
<!DOCTYPE svg PUBLIC "-//W3C//DTD SVG 1.1//EN" "http://www.w3.org/Graphics/SVG/1.1/DTD/svg11.dtd">
<svg version="1.1" id="Layer_1" xmlns="http://www.w3.org/2000/svg" xmlns:xlink="http://www.w3.org/1999/xlink" x="0px" y="0px"
	 viewBox="0 0 462 85.1" enable-background="new 0 0 462 85.1" xml:space="preserve">
<g id="Layer_1_1_">
	<path fill="#F58220" d="M38.2,29c-0.2,1.8-2,3.4-4,2.2c0.1,0.1,0.6-0.1,0,0c0.3,0-0.2,0-0.2,0c-0.5,0.1-1,0.3-1.5,0.5
		c-1.1,0.4-2.2,0.7-3.3,0.8c-1.5,0.1-2.4-0.9-2.5-2l0,0l-21.4,37c-2,3.4-0.8,7.8,2.6,9.8l0.9,0.5c3.4,2,7.8,0.8,9.8-2.6l21.4-37
		C41.6,35.1,40.8,31.2,38.2,29z"/>
	<path fill="#8CC642" d="M60.9,67.5l-21.4-37c-2-3.4-6.4-4.6-9.8-2.6l-0.9,0.5c-3.4,2-4.6,6.4-2.6,9.8l21.4,37c0,0,0,0.1,0.1,0.1
		c0-0.5,0.1-1,0.3-1.5c0.6-1.2,2.5-1.8,3.7-1c0.4,0.2,0.7,0.5,1,0.8l0,0c0.1,0.1,0.2,0.1,0.2,0.2c0.1,0.1,0.3,0.2,0.4,0.2
		c1.4,0.6,1.6,2.5,1,3.7c-0.3,0.5-0.8,0.9-1.3,1.1c1.5,0.2,3-0.1,4.4-0.9l0.9-0.5C61.7,75.3,62.9,70.9,60.9,67.5z"/>
	<path fill="#F0E929" d="M101.4,75.5c0.4-1.1,1.3-1.8,2.5-1.8c1,0,2.1,0.7,2.5,1.6c0-0.2,0.1-0.5,0.1-0.7c0-2.3-1.9-4.2-4.2-4.2
		H53.5c-2.3,0-4.2,1.9-4.2,4.2c0,2.3,1.9,4.2,4.2,4.2h48C100.7,77.8,100.8,76.5,101.4,75.5z"/>
	<path fill="#44C3D1" d="M50.9,77.9L50,77.4c-3.4-2-4.6-6.4-2.6-9.8l21.4-37c2-3.4,6.4-4.6,9.8-2.6l0.9,0.5c3.4,2,4.6,6.4,2.6,9.8
		l-21.4,37C58.7,78.7,54.3,79.9,50.9,77.9z"/>
	<path fill="#EB0D8C" d="M105.4,65.6c-1.6-0.3-2.2-1.9-1.9-3.3L71.4,6.8c-2-3.4-6.4-4.6-9.8-2.6c-3.4,2-4.6,6.4-2.6,9.8l35.4,61.5
		c2,3.4,6.4,4.6,9.8,2.6c3.4-2,4.6-6.4,2.7-9.9L105.4,65.6z"/>
</g>
<g id="Layer_2">
	<g>
		<path fill="#F58220" d="M38.1,29c-0.2,1.8-2,3.4-4,2.2c0.1,0.1,0.6-0.1,0,0c0.3,0-0.2,0-0.2,0c-0.5,0.1-1,0.3-1.5,0.5
			c-1.1,0.4-2.2,0.7-3.3,0.8c-1.5,0.1-2.4-0.9-2.5-2l0,0l-21.4,37c-2,3.4-0.8,7.8,2.6,9.8l0.9,0.5c3.4,2,7.8,0.8,9.8-2.6l21.4-37
			C41.5,35.1,40.7,31.2,38.1,29z"/>
		<path fill="#8CC642" d="M60.8,67.5l-21.4-37c-2-3.4-6.4-4.6-9.8-2.6l-0.9,0.5c-3.4,2-4.6,6.4-2.6,9.8l21.4,37c0,0,0,0.1,0.1,0.1
			c0-0.5,0.1-1,0.3-1.5c0.6-1.2,2.5-1.8,3.7-1c0.4,0.2,0.7,0.5,1,0.8l0,0c0.1,0.1,0.2,0.1,0.2,0.2c0.1,0.1,0.3,0.2,0.4,0.2
			c1.4,0.6,1.6,2.5,1,3.7c-0.3,0.5-0.8,0.9-1.3,1.1c1.5,0.2,3-0.1,4.4-0.9l0.9-0.5C61.6,75.3,62.8,70.9,60.8,67.5z"/>
		<path fill="#F0E929" d="M49.3,74.6L49.3,74.6c0-2.3,1.9-4.2,4.2-4.2h48.8c2.3,0,4.2,1.9,4.2,4.2l0,0c0,2.3-1.9,4.2-4.2,4.2H53.4
			C51.1,78.7,49.3,76.9,49.3,74.6z"/>
		<path fill="#44C3D1" d="M50.8,77.9l-0.9-0.5c-3.4-2-4.6-6.4-2.6-9.8l21.4-37c2-3.4,6.4-4.6,9.8-2.6l0.9,0.5c3.4,2,4.6,6.4,2.6,9.8
			l-21.4,37C58.6,78.7,54.2,79.9,50.8,77.9z"/>
		<path fill="#EB0D8C" d="M104.1,78.1L104.1,78.1c-3.4,2-7.8,0.8-9.8-2.6L58.9,14c-2-3.4-0.8-7.8,2.6-9.8l0,0c3.4-2,7.8-0.8,9.8,2.6
			l35.5,61.4C108.7,71.7,107.5,76.1,104.1,78.1z"/>
	</g>
	<g enable-background="new    ">
		<path fill="#864589" d="M144.5,33.8V59h-4.3V39.7l-12,14.5h-0.3l-12-14.5V59h-4.2V33.8h4.7l11.7,14.4l11.7-14.4H144.5z"/>
		<path fill="#864589" d="M172.3,48.1v7.2c0,1.5,0.3,2.7,0.9,3.8h-4.4c-0.5-0.9-0.8-1.8-0.8-2.8v0c-1.5,1.9-4.6,3.5-8.6,3.5
			c-4.2,0-9.9-1.7-9.9-6.9c0-5.1,5.7-6.9,9.9-6.9c4,0,7.1,1.6,8.6,3.5v-1.4c0-4.2-2.6-6.2-7.7-6.2c-2.9,0-5.2,0.6-7.5,2l-1.5-2.8
			c2.4-1.5,6.2-2.4,9.8-2.4C168.1,38.6,172.3,41.9,172.3,48.1z M168.2,52.6c-1.6-2.7-4.9-3.6-7.9-3.6c-2.6,0-6.6,0.7-6.6,3.9
			c0,3.2,3.9,3.9,6.6,3.9c3,0,6.3-0.9,7.9-3.6V52.6z"/>
		<path fill="#864589" d="M200.8,47.8V59h-4.2v-11c0-3.9-2-6-5.9-6c-3.4,0-6.2,1.6-7.9,4.8V59h-4.2V39.3v-6.9h4.2v7.1v3.7
			c1.7-2.8,5-4.5,9-4.5C197.8,38.6,200.8,42.4,200.8,47.8z"/>
		<path fill="#864589" d="M228,48.1v7.2c0,1.5,0.3,2.7,0.9,3.8h-4.4c-0.5-0.9-0.8-1.8-0.8-2.8v0c-1.5,1.9-4.6,3.5-8.6,3.5
			c-4.2,0-9.9-1.7-9.9-6.9c0-5.1,5.7-6.9,9.9-6.9c4,0,7.1,1.6,8.6,3.5v-1.4c0-4.2-2.6-6.2-7.7-6.2c-2.9,0-5.2,0.6-7.5,2l-1.5-2.8
			c2.4-1.5,6.2-2.4,9.8-2.4C223.8,38.6,228,41.9,228,48.1z M223.8,52.6c-1.6-2.7-4.9-3.6-7.9-3.6c-2.6,0-6.6,0.7-6.6,3.9
			c0,3.2,3.9,3.9,6.6,3.9c3,0,6.3-0.9,7.9-3.6V52.6z"/>
		<path fill="#864589" d="M273.7,46.4c0,7.8-6,12.6-15.3,12.6h-12.8V33.8h12.8C267.8,33.8,273.7,38.7,273.7,46.4z M269.3,46.4
			c0-5.8-4.6-8.8-11.2-8.8h-8.1v17.6h8.1C264.7,55.3,269.3,52.3,269.3,46.4z"/>
		<path fill="#864589" d="M299.9,48.1v7.2c0,1.5,0.3,2.7,0.9,3.8h-4.4c-0.5-0.9-0.8-1.8-0.8-2.8v0c-1.5,1.9-4.6,3.5-8.6,3.5
			c-4.2,0-9.9-1.7-9.9-6.9c0-5.1,5.7-6.9,9.9-6.9c4,0,7.1,1.6,8.6,3.5v-1.4c0-4.2-2.6-6.2-7.7-6.2c-2.9,0-5.2,0.6-7.5,2L279,41
			c2.4-1.5,6.2-2.4,9.8-2.4C295.7,38.6,299.9,41.9,299.9,48.1z M295.7,52.6c-1.6-2.7-4.9-3.6-7.9-3.6c-2.6,0-6.6,0.7-6.6,3.9
			c0,3.2,3.9,3.9,6.6,3.9c3,0,6.3-0.9,7.9-3.6V52.6z"/>
		<path fill="#864589" d="M311.2,39.3h8.7v3.3h-8.6V59h-4.2V42.6h-3.8v-3.3h3.8v-1.1c0-4.5,3.2-6.6,7.1-6.6c2,0,4.3,0.5,5.9,1.5
			l-1.3,2.6c-1.4-0.9-2.6-1.2-3.9-1.2c-2.2,0-3.7,0.8-3.7,3.1V39.3z"/>
		<path fill="#864589" d="M338.1,57.9c-1.6,1.1-3.8,1.8-6.1,1.8c-3.9,0-6.9-2.1-6.9-6.2V42.7h-3.8v-3.3h3.8v-4.6h4.2v4.6h8.6v3.3
			h-8.6v10.3c0,2.2,1.7,3.3,3.7,3.3c1.5,0,2.7-0.5,3.9-1.2L338.1,57.9z"/>
		<path fill="#864589" d="M353,56.5c3.6,0,5.9-0.9,8.1-2.8l2.4,2.6c-2.7,2.4-6.1,3.5-10.7,3.5c-7.9,0-12.4-4.1-12.4-10.6
			c0-6.6,4.5-10.7,12.1-10.7c7.1,0,11.7,3.7,11.7,10.6c0,0.5,0,0.7-0.1,0.9h-19.6C344.9,54.4,348,56.5,353,56.5z M344.7,47.1l15.4,0
			c-0.9-3.6-3.7-5.2-7.6-5.2C348.4,41.9,345.5,43.6,344.7,47.1z"/>
		<path fill="#864589" d="M369.1,59V39.3h4.2v4.5c1.6-3.2,5.3-4.9,9.3-4.9v3.7c-4.4,0-8,1.8-9.3,5.5V59H369.1z"/>
		<path fill="#864589" d="M403.9,42.8V32.4h4.2V59h-4.2v-3.5c-1.7,2.4-4.9,4.2-9.1,4.2c-6.4,0-10.7-4.2-10.7-10.5
			c0-6.4,4.2-10.6,10.7-10.6C399,38.6,402.2,40.4,403.9,42.8z M403.9,52.1v-5.9c-1.9-2.9-4.7-4-8-4c-4.9,0-7.6,2.5-7.6,7
			c0,4.5,2.7,7,7.6,7C399.2,56.2,402,55,403.9,52.1z"/>
		<path fill="#864589" d="M435.4,48.1v7.2c0,1.5,0.3,2.7,0.9,3.8H432c-0.5-0.9-0.8-1.8-0.8-2.8v0c-1.5,1.9-4.6,3.5-8.6,3.5
			c-4.2,0-9.9-1.7-9.9-6.9c0-5.1,5.7-6.9,9.9-6.9c4,0,7.1,1.6,8.6,3.5v-1.4c0-4.2-2.6-6.2-7.7-6.2c-2.9,0-5.2,0.6-7.5,2l-1.5-2.8
			c2.4-1.5,6.2-2.4,9.8-2.4C431.2,38.6,435.4,41.9,435.4,48.1z M431.3,52.6c-1.6-2.7-4.9-3.6-7.9-3.6c-2.6,0-6.6,0.7-6.6,3.9
			c0,3.2,3.9,3.9,6.6,3.9c3,0,6.3-0.9,7.9-3.6V52.6z"/>
		<path fill="#864589" d="M441.7,59V39.3h4.2v4.5c1.6-3.2,5.3-4.9,9.3-4.9v3.7c-4.4,0-8,1.8-9.3,5.5V59H441.7z"/>
	</g>
</g>
</svg>
